# xmcd
#
# Track frame offsets:
#	150
#	14844
#	30989
#	46600
#	60156
#	76231
#	90036
#	103228
#	118217
#	129638
#	140207
#	153526
#
# Disc length: 2225 seconds
#
# Revision: 0
# Processed by: cddbd v1.5.2PL0 Copyright (c) Steve Scherf et al.
# Submitted via: audiograbber 1.83.01
#
DISCID=9408af0c
DTITLE=vicente fernandez - vol 6
DYEAR=1900
DGENRE=ranchero
TTITLE0=aca entre nos
TTITLE1=perdon
TTITLE2=tu voz
TTITLE3=a tu salud
TTITLE4=de 7a 9
TTITLE5=nos estorbo la ropa
TTITLE6=el adios a la vida
TTITLE7=desolacion
TTITLE8=aunque me duela el alma
TTITLE9=el palenque
TTITLE10=con golpes de pecho
TTITLE11=voy a navegar
EXTD=
EXTT0=
EXTT1=
EXTT2=
EXTT3=
EXTT4=
EXTT5=
EXTT6=
EXTT7=
EXTT8=
EXTT9=
EXTT10=
EXTT11=
PLAYORDER=
